<mxfile host="app.diagrams.net" agent="Mozilla/5.0 (X11; Linux x86_64; rv:129.0) Gecko/20100101 Firefox/129.0" version="25.0.3">
  <diagram name="Page-1" id="IG3MzUUw2ymZqQd2v7ET">
    <mxGraphModel dx="1366" dy="869" grid="1" gridSize="10" guides="1" tooltips="1" connect="1" arrows="1" fold="1" page="0" pageScale="1" pageWidth="850" pageHeight="1100" math="0" shadow="0">
      <root>
        <mxCell id="0" />
        <mxCell id="1" parent="0" />
        <mxCell id="PVGm662-4inRBWsWVYEp-5" style="edgeStyle=orthogonalEdgeStyle;rounded=0;orthogonalLoop=1;jettySize=auto;html=1;entryX=0.5;entryY=0;entryDx=0;entryDy=0;" parent="1" source="m7AmhTVpTq-Uz_7KJyDs-37" target="PVGm662-4inRBWsWVYEp-4" edge="1">
          <mxGeometry relative="1" as="geometry" />
        </mxCell>
        <mxCell id="JbVLu6empZR443jNeuOb-39" style="edgeStyle=orthogonalEdgeStyle;rounded=0;orthogonalLoop=1;jettySize=auto;html=1;entryX=0;entryY=0.5;entryDx=0;entryDy=0;" edge="1" parent="1" source="m7AmhTVpTq-Uz_7KJyDs-37" target="JbVLu6empZR443jNeuOb-40">
          <mxGeometry relative="1" as="geometry">
            <mxPoint x="320" y="60" as="targetPoint" />
          </mxGeometry>
        </mxCell>
        <mxCell id="JbVLu6empZR443jNeuOb-42" style="edgeStyle=orthogonalEdgeStyle;rounded=0;orthogonalLoop=1;jettySize=auto;html=1;entryX=0;entryY=0.5;entryDx=0;entryDy=0;" edge="1" parent="1" source="m7AmhTVpTq-Uz_7KJyDs-37" target="JbVLu6empZR443jNeuOb-41">
          <mxGeometry relative="1" as="geometry" />
        </mxCell>
        <mxCell id="JbVLu6empZR443jNeuOb-44" style="edgeStyle=orthogonalEdgeStyle;rounded=0;orthogonalLoop=1;jettySize=auto;html=1;exitX=1;exitY=0.5;exitDx=0;exitDy=0;entryX=0;entryY=0.5;entryDx=0;entryDy=0;" edge="1" parent="1" source="m7AmhTVpTq-Uz_7KJyDs-37" target="JbVLu6empZR443jNeuOb-43">
          <mxGeometry relative="1" as="geometry" />
        </mxCell>
        <mxCell id="m7AmhTVpTq-Uz_7KJyDs-37" value="Fireclay&lt;br&gt;Bricks" style="rounded=0;whiteSpace=wrap;html=1;" parent="1" vertex="1">
          <mxGeometry x="120" y="120" width="80" height="40" as="geometry" />
        </mxCell>
        <mxCell id="m7AmhTVpTq-Uz_7KJyDs-78" style="edgeStyle=orthogonalEdgeStyle;rounded=0;orthogonalLoop=1;jettySize=auto;html=1;entryX=0;entryY=0.5;entryDx=0;entryDy=0;exitX=1;exitY=0.5;exitDx=0;exitDy=0;" parent="1" source="m7AmhTVpTq-Uz_7KJyDs-41" target="m7AmhTVpTq-Uz_7KJyDs-77" edge="1">
          <mxGeometry relative="1" as="geometry">
            <mxPoint x="220" y="310" as="sourcePoint" />
          </mxGeometry>
        </mxCell>
        <mxCell id="m7AmhTVpTq-Uz_7KJyDs-41" value="Limeclay" style="rounded=0;whiteSpace=wrap;html=1;" parent="1" vertex="1">
          <mxGeometry x="120" y="360" width="80" height="40" as="geometry" />
        </mxCell>
        <mxCell id="PVGm662-4inRBWsWVYEp-8" style="edgeStyle=orthogonalEdgeStyle;rounded=0;orthogonalLoop=1;jettySize=auto;html=1;" parent="1" source="m7AmhTVpTq-Uz_7KJyDs-77" target="PVGm662-4inRBWsWVYEp-7" edge="1">
          <mxGeometry relative="1" as="geometry" />
        </mxCell>
        <mxCell id="m7AmhTVpTq-Uz_7KJyDs-77" value="Cement" style="rounded=0;whiteSpace=wrap;html=1;" parent="1" vertex="1">
          <mxGeometry x="240" y="360" width="80" height="40" as="geometry" />
        </mxCell>
        <mxCell id="PVGm662-4inRBWsWVYEp-3" style="edgeStyle=orthogonalEdgeStyle;rounded=0;orthogonalLoop=1;jettySize=auto;html=1;entryX=0;entryY=0.5;entryDx=0;entryDy=0;fillColor=#ffe6cc;strokeColor=#d79b00;" parent="1" source="m7AmhTVpTq-Uz_7KJyDs-156" target="PVGm662-4inRBWsWVYEp-4" edge="1">
          <mxGeometry relative="1" as="geometry">
            <mxPoint x="320" y="220" as="targetPoint" />
          </mxGeometry>
        </mxCell>
        <mxCell id="m7AmhTVpTq-Uz_7KJyDs-156" value="Copper Ingot" style="rounded=0;whiteSpace=wrap;html=1;fillColor=#ffe6cc;strokeColor=#d79b00;" parent="1" vertex="1">
          <mxGeometry x="120" y="200" width="80" height="40" as="geometry" />
        </mxCell>
        <mxCell id="PVGm662-4inRBWsWVYEp-2" style="edgeStyle=orthogonalEdgeStyle;rounded=0;orthogonalLoop=1;jettySize=auto;html=1;entryX=0.5;entryY=1;entryDx=0;entryDy=0;fillColor=#f8cecc;strokeColor=#b85450;" parent="1" target="PVGm662-4inRBWsWVYEp-4" edge="1">
          <mxGeometry relative="1" as="geometry">
            <mxPoint x="320" y="230" as="targetPoint" />
            <mxPoint x="200" y="290.0000000000002" as="sourcePoint" />
          </mxGeometry>
        </mxCell>
        <mxCell id="PVGm662-4inRBWsWVYEp-6" style="edgeStyle=orthogonalEdgeStyle;rounded=0;orthogonalLoop=1;jettySize=auto;html=1;exitX=1;exitY=0.75;exitDx=0;exitDy=0;fillColor=#f8cecc;strokeColor=#b85450;" parent="1" edge="1">
          <mxGeometry relative="1" as="geometry">
            <mxPoint x="360" y="299.57" as="targetPoint" />
            <mxPoint x="200" y="299.57" as="sourcePoint" />
          </mxGeometry>
        </mxCell>
        <mxCell id="m7AmhTVpTq-Uz_7KJyDs-162" value="Wrought Iron Ingot" style="rounded=0;whiteSpace=wrap;html=1;fillColor=#f8cecc;strokeColor=#b85450;" parent="1" vertex="1">
          <mxGeometry x="120" y="280" width="80" height="40" as="geometry" />
        </mxCell>
        <mxCell id="m7AmhTVpTq-Uz_7KJyDs-195" value="Early-Game Products" style="rounded=0;whiteSpace=wrap;html=1;strokeColor=#ff7800;strokeWidth=2;" parent="1" vertex="1">
          <mxGeometry x="100" y="40" width="120" height="60" as="geometry" />
        </mxCell>
        <mxCell id="PVGm662-4inRBWsWVYEp-11" style="edgeStyle=orthogonalEdgeStyle;rounded=0;orthogonalLoop=1;jettySize=auto;html=1;" parent="1" source="PVGm662-4inRBWsWVYEp-4" edge="1">
          <mxGeometry relative="1" as="geometry">
            <mxPoint x="400" y="220" as="targetPoint" />
          </mxGeometry>
        </mxCell>
        <mxCell id="PVGm662-4inRBWsWVYEp-4" value="Process Boiler" style="rounded=0;whiteSpace=wrap;html=1;" parent="1" vertex="1">
          <mxGeometry x="240" y="200" width="80" height="40" as="geometry" />
        </mxCell>
        <mxCell id="PVGm662-4inRBWsWVYEp-10" style="edgeStyle=orthogonalEdgeStyle;rounded=0;orthogonalLoop=1;jettySize=auto;html=1;entryX=0.5;entryY=1;entryDx=0;entryDy=0;" parent="1" source="PVGm662-4inRBWsWVYEp-7" target="PVGm662-4inRBWsWVYEp-9" edge="1">
          <mxGeometry relative="1" as="geometry" />
        </mxCell>
        <mxCell id="PVGm662-4inRBWsWVYEp-7" value="Concrete" style="rounded=0;whiteSpace=wrap;html=1;" parent="1" vertex="1">
          <mxGeometry x="360" y="360" width="80" height="40" as="geometry" />
        </mxCell>
        <mxCell id="PVGm662-4inRBWsWVYEp-16" style="edgeStyle=orthogonalEdgeStyle;rounded=0;orthogonalLoop=1;jettySize=auto;html=1;entryX=0;entryY=0.75;entryDx=0;entryDy=0;exitX=1;exitY=0.75;exitDx=0;exitDy=0;" parent="1" source="PVGm662-4inRBWsWVYEp-9" target="PVGm662-4inRBWsWVYEp-15" edge="1">
          <mxGeometry relative="1" as="geometry">
            <Array as="points">
              <mxPoint x="460" y="310" />
              <mxPoint x="460" y="310" />
            </Array>
          </mxGeometry>
        </mxCell>
        <mxCell id="PVGm662-4inRBWsWVYEp-19" style="edgeStyle=orthogonalEdgeStyle;rounded=0;orthogonalLoop=1;jettySize=auto;html=1;exitX=1;exitY=0.75;exitDx=0;exitDy=0;entryX=0;entryY=0.75;entryDx=0;entryDy=0;" parent="1" source="PVGm662-4inRBWsWVYEp-9" target="PVGm662-4inRBWsWVYEp-18" edge="1">
          <mxGeometry relative="1" as="geometry" />
        </mxCell>
        <mxCell id="PVGm662-4inRBWsWVYEp-9" value="Steam Hammer" style="rounded=0;whiteSpace=wrap;html=1;" parent="1" vertex="1">
          <mxGeometry x="360" y="280" width="80" height="40" as="geometry" />
        </mxCell>
        <mxCell id="PVGm662-4inRBWsWVYEp-17" style="edgeStyle=orthogonalEdgeStyle;rounded=0;orthogonalLoop=1;jettySize=auto;html=1;entryX=0;entryY=0.25;entryDx=0;entryDy=0;exitX=1;exitY=0.25;exitDx=0;exitDy=0;" parent="1" source="PVGm662-4inRBWsWVYEp-12" target="PVGm662-4inRBWsWVYEp-15" edge="1">
          <mxGeometry relative="1" as="geometry">
            <Array as="points">
              <mxPoint x="450" y="210" />
              <mxPoint x="450" y="290" />
            </Array>
          </mxGeometry>
        </mxCell>
        <mxCell id="PVGm662-4inRBWsWVYEp-20" style="edgeStyle=orthogonalEdgeStyle;rounded=0;orthogonalLoop=1;jettySize=auto;html=1;exitX=1;exitY=0.25;exitDx=0;exitDy=0;entryX=0;entryY=0.25;entryDx=0;entryDy=0;" parent="1" source="PVGm662-4inRBWsWVYEp-12" target="PVGm662-4inRBWsWVYEp-18" edge="1">
          <mxGeometry relative="1" as="geometry" />
        </mxCell>
        <mxCell id="JbVLu6empZR443jNeuOb-26" style="edgeStyle=orthogonalEdgeStyle;rounded=0;orthogonalLoop=1;jettySize=auto;html=1;exitX=1;exitY=0.25;exitDx=0;exitDy=0;entryX=0;entryY=0.25;entryDx=0;entryDy=0;" edge="1" parent="1" source="PVGm662-4inRBWsWVYEp-12" target="JbVLu6empZR443jNeuOb-10">
          <mxGeometry relative="1" as="geometry">
            <Array as="points">
              <mxPoint x="450" y="210" />
              <mxPoint x="450" y="450" />
            </Array>
          </mxGeometry>
        </mxCell>
        <mxCell id="JbVLu6empZR443jNeuOb-29" style="edgeStyle=orthogonalEdgeStyle;rounded=0;orthogonalLoop=1;jettySize=auto;html=1;exitX=1;exitY=0.25;exitDx=0;exitDy=0;entryX=0;entryY=0.25;entryDx=0;entryDy=0;" edge="1" parent="1" source="PVGm662-4inRBWsWVYEp-12" target="JbVLu6empZR443jNeuOb-16">
          <mxGeometry relative="1" as="geometry">
            <Array as="points">
              <mxPoint x="450" y="210" />
              <mxPoint x="450" y="590" />
            </Array>
          </mxGeometry>
        </mxCell>
        <mxCell id="JbVLu6empZR443jNeuOb-30" style="edgeStyle=orthogonalEdgeStyle;rounded=0;orthogonalLoop=1;jettySize=auto;html=1;exitX=1;exitY=0.25;exitDx=0;exitDy=0;entryX=0;entryY=0.25;entryDx=0;entryDy=0;" edge="1" parent="1" source="PVGm662-4inRBWsWVYEp-12" target="JbVLu6empZR443jNeuOb-17">
          <mxGeometry relative="1" as="geometry">
            <Array as="points">
              <mxPoint x="450" y="210" />
              <mxPoint x="450" y="650" />
            </Array>
          </mxGeometry>
        </mxCell>
        <mxCell id="PVGm662-4inRBWsWVYEp-12" value="Steam" style="rounded=0;whiteSpace=wrap;html=1;" parent="1" vertex="1">
          <mxGeometry x="360" y="200" width="80" height="40" as="geometry" />
        </mxCell>
        <mxCell id="JbVLu6empZR443jNeuOb-7" style="edgeStyle=orthogonalEdgeStyle;rounded=0;orthogonalLoop=1;jettySize=auto;html=1;entryX=0;entryY=0.25;entryDx=0;entryDy=0;" edge="1" parent="1" source="PVGm662-4inRBWsWVYEp-15" target="JbVLu6empZR443jNeuOb-3">
          <mxGeometry relative="1" as="geometry" />
        </mxCell>
        <mxCell id="JbVLu6empZR443jNeuOb-13" style="edgeStyle=orthogonalEdgeStyle;rounded=0;orthogonalLoop=1;jettySize=auto;html=1;entryX=0;entryY=0.5;entryDx=0;entryDy=0;" edge="1" parent="1" source="PVGm662-4inRBWsWVYEp-15" target="JbVLu6empZR443jNeuOb-10">
          <mxGeometry relative="1" as="geometry" />
        </mxCell>
        <mxCell id="PVGm662-4inRBWsWVYEp-15" value="Power Hammer" style="rounded=0;whiteSpace=wrap;html=1;" parent="1" vertex="1">
          <mxGeometry x="480" y="280" width="80" height="40" as="geometry" />
        </mxCell>
        <mxCell id="JbVLu6empZR443jNeuOb-25" style="edgeStyle=orthogonalEdgeStyle;rounded=0;orthogonalLoop=1;jettySize=auto;html=1;entryX=0;entryY=0.5;entryDx=0;entryDy=0;" edge="1" parent="1" source="PVGm662-4inRBWsWVYEp-18" target="JbVLu6empZR443jNeuOb-23">
          <mxGeometry relative="1" as="geometry" />
        </mxCell>
        <mxCell id="PVGm662-4inRBWsWVYEp-18" value="Stamp Mill" style="rounded=0;whiteSpace=wrap;html=1;" parent="1" vertex="1">
          <mxGeometry x="480" y="200" width="80" height="40" as="geometry" />
        </mxCell>
        <mxCell id="JbVLu6empZR443jNeuOb-14" style="edgeStyle=orthogonalEdgeStyle;rounded=0;orthogonalLoop=1;jettySize=auto;html=1;" edge="1" parent="1" source="JbVLu6empZR443jNeuOb-3" target="JbVLu6empZR443jNeuOb-10">
          <mxGeometry relative="1" as="geometry" />
        </mxCell>
        <mxCell id="JbVLu6empZR443jNeuOb-15" style="edgeStyle=orthogonalEdgeStyle;rounded=0;orthogonalLoop=1;jettySize=auto;html=1;entryX=0;entryY=0.5;entryDx=0;entryDy=0;" edge="1" parent="1" source="JbVLu6empZR443jNeuOb-3" target="JbVLu6empZR443jNeuOb-16">
          <mxGeometry relative="1" as="geometry">
            <mxPoint x="680" y="540" as="targetPoint" />
            <Array as="points">
              <mxPoint x="600" y="600" />
            </Array>
          </mxGeometry>
        </mxCell>
        <mxCell id="JbVLu6empZR443jNeuOb-18" style="edgeStyle=orthogonalEdgeStyle;rounded=0;orthogonalLoop=1;jettySize=auto;html=1;entryX=0;entryY=0.5;entryDx=0;entryDy=0;" edge="1" parent="1" source="JbVLu6empZR443jNeuOb-3" target="JbVLu6empZR443jNeuOb-17">
          <mxGeometry relative="1" as="geometry" />
        </mxCell>
        <mxCell id="JbVLu6empZR443jNeuOb-27" style="edgeStyle=orthogonalEdgeStyle;rounded=0;orthogonalLoop=1;jettySize=auto;html=1;exitX=1;exitY=0.5;exitDx=0;exitDy=0;entryX=0.75;entryY=1;entryDx=0;entryDy=0;" edge="1" parent="1" source="JbVLu6empZR443jNeuOb-3" target="JbVLu6empZR443jNeuOb-20">
          <mxGeometry relative="1" as="geometry" />
        </mxCell>
        <mxCell id="JbVLu6empZR443jNeuOb-33" style="edgeStyle=orthogonalEdgeStyle;rounded=0;orthogonalLoop=1;jettySize=auto;html=1;entryX=0.75;entryY=1;entryDx=0;entryDy=0;" edge="1" parent="1" source="JbVLu6empZR443jNeuOb-3" target="JbVLu6empZR443jNeuOb-31">
          <mxGeometry relative="1" as="geometry" />
        </mxCell>
        <mxCell id="JbVLu6empZR443jNeuOb-36" style="edgeStyle=orthogonalEdgeStyle;rounded=0;orthogonalLoop=1;jettySize=auto;html=1;entryX=0.75;entryY=1;entryDx=0;entryDy=0;" edge="1" parent="1" source="JbVLu6empZR443jNeuOb-3" target="JbVLu6empZR443jNeuOb-34">
          <mxGeometry relative="1" as="geometry">
            <Array as="points">
              <mxPoint x="940" y="540" />
            </Array>
          </mxGeometry>
        </mxCell>
        <mxCell id="JbVLu6empZR443jNeuOb-3" value="Machine&lt;br&gt;Shop 1" style="rounded=0;whiteSpace=wrap;html=1;" vertex="1" parent="1">
          <mxGeometry x="560" y="520" width="80" height="40" as="geometry" />
        </mxCell>
        <mxCell id="JbVLu6empZR443jNeuOb-11" style="edgeStyle=orthogonalEdgeStyle;rounded=0;orthogonalLoop=1;jettySize=auto;html=1;" edge="1" parent="1" source="JbVLu6empZR443jNeuOb-10">
          <mxGeometry relative="1" as="geometry">
            <mxPoint x="600" y="400" as="targetPoint" />
          </mxGeometry>
        </mxCell>
        <mxCell id="JbVLu6empZR443jNeuOb-10" value="Stationary Steam Engine" style="rounded=0;whiteSpace=wrap;html=1;" vertex="1" parent="1">
          <mxGeometry x="560" y="440" width="80" height="40" as="geometry" />
        </mxCell>
        <mxCell id="JbVLu6empZR443jNeuOb-22" style="edgeStyle=orthogonalEdgeStyle;rounded=0;orthogonalLoop=1;jettySize=auto;html=1;entryX=0.5;entryY=1;entryDx=0;entryDy=0;" edge="1" parent="1" source="JbVLu6empZR443jNeuOb-12" target="JbVLu6empZR443jNeuOb-20">
          <mxGeometry relative="1" as="geometry">
            <Array as="points">
              <mxPoint x="680" y="380" />
            </Array>
          </mxGeometry>
        </mxCell>
        <mxCell id="JbVLu6empZR443jNeuOb-32" style="edgeStyle=orthogonalEdgeStyle;rounded=0;orthogonalLoop=1;jettySize=auto;html=1;" edge="1" parent="1" source="JbVLu6empZR443jNeuOb-12" target="JbVLu6empZR443jNeuOb-31">
          <mxGeometry relative="1" as="geometry" />
        </mxCell>
        <mxCell id="JbVLu6empZR443jNeuOb-38" style="edgeStyle=orthogonalEdgeStyle;rounded=0;orthogonalLoop=1;jettySize=auto;html=1;entryX=0.5;entryY=1;entryDx=0;entryDy=0;" edge="1" parent="1" source="JbVLu6empZR443jNeuOb-12" target="JbVLu6empZR443jNeuOb-34">
          <mxGeometry relative="1" as="geometry" />
        </mxCell>
        <mxCell id="JbVLu6empZR443jNeuOb-12" value="Electricity" style="rounded=0;whiteSpace=wrap;html=1;" vertex="1" parent="1">
          <mxGeometry x="560" y="360" width="80" height="40" as="geometry" />
        </mxCell>
        <mxCell id="JbVLu6empZR443jNeuOb-16" value="Steam Drill" style="rounded=0;whiteSpace=wrap;html=1;" vertex="1" parent="1">
          <mxGeometry x="640" y="580" width="80" height="40" as="geometry" />
        </mxCell>
        <mxCell id="JbVLu6empZR443jNeuOb-17" value="Steam Saw" style="rounded=0;whiteSpace=wrap;html=1;" vertex="1" parent="1">
          <mxGeometry x="640" y="640" width="80" height="40" as="geometry" />
        </mxCell>
        <mxCell id="JbVLu6empZR443jNeuOb-24" style="edgeStyle=orthogonalEdgeStyle;rounded=0;orthogonalLoop=1;jettySize=auto;html=1;entryX=0.5;entryY=1;entryDx=0;entryDy=0;" edge="1" parent="1" source="JbVLu6empZR443jNeuOb-20" target="JbVLu6empZR443jNeuOb-23">
          <mxGeometry relative="1" as="geometry" />
        </mxCell>
        <mxCell id="JbVLu6empZR443jNeuOb-20" value="Vanning Concentrator" style="rounded=0;whiteSpace=wrap;html=1;" vertex="1" parent="1">
          <mxGeometry x="640" y="280" width="80" height="40" as="geometry" />
        </mxCell>
        <mxCell id="JbVLu6empZR443jNeuOb-35" style="edgeStyle=orthogonalEdgeStyle;rounded=0;orthogonalLoop=1;jettySize=auto;html=1;exitX=1;exitY=0.5;exitDx=0;exitDy=0;entryX=0;entryY=0.5;entryDx=0;entryDy=0;" edge="1" parent="1" source="JbVLu6empZR443jNeuOb-23" target="JbVLu6empZR443jNeuOb-34">
          <mxGeometry relative="1" as="geometry" />
        </mxCell>
        <mxCell id="JbVLu6empZR443jNeuOb-23" value="Latenium" style="rounded=0;whiteSpace=wrap;html=1;" vertex="1" parent="1">
          <mxGeometry x="640" y="200" width="80" height="40" as="geometry" />
        </mxCell>
        <mxCell id="JbVLu6empZR443jNeuOb-37" style="edgeStyle=orthogonalEdgeStyle;rounded=0;orthogonalLoop=1;jettySize=auto;html=1;entryX=0.25;entryY=1;entryDx=0;entryDy=0;" edge="1" parent="1" source="JbVLu6empZR443jNeuOb-31" target="JbVLu6empZR443jNeuOb-34">
          <mxGeometry relative="1" as="geometry" />
        </mxCell>
        <mxCell id="JbVLu6empZR443jNeuOb-31" value="Drawing Press" style="rounded=0;whiteSpace=wrap;html=1;" vertex="1" parent="1">
          <mxGeometry x="760" y="280" width="80" height="40" as="geometry" />
        </mxCell>
        <mxCell id="JbVLu6empZR443jNeuOb-34" value="Integrated Arm" style="rounded=0;whiteSpace=wrap;html=1;" vertex="1" parent="1">
          <mxGeometry x="880" y="200" width="80" height="40" as="geometry" />
        </mxCell>
        <mxCell id="JbVLu6empZR443jNeuOb-40" value="Coke Oven" style="rounded=0;whiteSpace=wrap;html=1;" vertex="1" parent="1">
          <mxGeometry x="360" y="60" width="80" height="40" as="geometry" />
        </mxCell>
        <mxCell id="JbVLu6empZR443jNeuOb-41" value="Blast Furnace" style="rounded=0;whiteSpace=wrap;html=1;" vertex="1" parent="1">
          <mxGeometry x="360" y="120" width="80" height="40" as="geometry" />
        </mxCell>
        <mxCell id="JbVLu6empZR443jNeuOb-43" value="Kiln" style="rounded=0;whiteSpace=wrap;html=1;" vertex="1" parent="1">
          <mxGeometry x="360" width="80" height="40" as="geometry" />
        </mxCell>
        <mxCell id="m7AmhTVpTq-Uz_7KJyDs-194" value="" style="rounded=0;whiteSpace=wrap;html=1;dashed=1;strokeWidth=2;strokeColor=#FF7800;fillColor=none;" parent="1" vertex="1">
          <mxGeometry x="100" y="100" width="120" height="240" as="geometry" />
        </mxCell>
      </root>
    </mxGraphModel>
  </diagram>
</mxfile>
